<svg width="550" height="418" viewBox="0 0 550 418" fill="none" xmlns="http://www.w3.org/2000/svg">
<g clip-path="url(#clip0)">
<path d="M296.681 364.746C179.214 355.967 39.1297 266.585 46.2616 174.552C53.3935 82.5181 189.067 -3.15754 306.534 5.62105C424.001 14.3996 491.619 186.395 484.487 278.429C477.355 370.462 414.148 373.525 296.681 364.746Z" fill="#F2F2F2"/>
<path d="M276.024 384.756C412.502 384.756 523.139 377.97 523.139 369.6C523.139 361.23 412.502 354.444 276.024 354.444C139.546 354.444 28.9082 361.23 28.9082 369.6C28.9082 377.97 139.546 384.756 276.024 384.756Z" fill="#2A2937"/>
<path opacity="0.1" d="M276.024 379.378C392.273 379.378 486.512 374.891 486.512 369.356C486.512 363.82 392.273 359.333 276.024 359.333C159.775 359.333 65.5361 363.82 65.5361 369.356C65.5361 374.891 159.775 379.378 276.024 379.378Z" fill="black"/>
<path d="M103.629 418C160.862 418 207.258 413.951 207.258 408.956C207.258 403.96 160.862 399.911 103.629 399.911C46.3963 399.911 0 403.96 0 408.956C0 413.951 46.3963 418 103.629 418Z" fill="#2A2937"/>
<path d="M463.07 79.2H95.8152V367.644H463.07V79.2Z" fill="#191C26"/>
<path d="M275.264 118.619H184.663C184.518 118.619 184.375 118.591 184.241 118.536C184.108 118.48 183.986 118.399 183.884 118.297C183.782 118.195 183.7 118.073 183.645 117.94C183.59 117.806 183.561 117.663 183.561 117.518C183.561 117.373 183.59 117.23 183.645 117.096C183.7 116.963 183.782 116.841 183.884 116.739C183.986 116.637 184.108 116.556 184.241 116.5C184.375 116.445 184.518 116.417 184.663 116.417H275.264C275.556 116.418 275.835 116.534 276.04 116.741C276.246 116.947 276.362 117.226 276.362 117.518C276.362 117.81 276.246 118.089 276.04 118.296C275.835 118.502 275.556 118.618 275.264 118.619Z" fill="#F2F2F2"/>
<path d="M374.442 130.726H231.943C231.651 130.726 231.372 130.61 231.165 130.404C230.959 130.198 230.843 129.918 230.843 129.626C230.843 129.334 230.959 129.054 231.165 128.847C231.372 128.641 231.651 128.525 231.943 128.525H374.442C374.586 128.525 374.729 128.553 374.863 128.609C374.996 128.664 375.117 128.745 375.22 128.847C375.322 128.95 375.403 129.071 375.458 129.204C375.513 129.338 375.542 129.481 375.542 129.626C375.542 129.77 375.513 129.913 375.458 130.047C375.403 130.18 375.322 130.302 375.22 130.404C375.117 130.506 374.996 130.587 374.863 130.643C374.729 130.698 374.586 130.726 374.442 130.726Z" fill="#F2F2F2"/>
<path d="M275.704 142.834H185.103C184.811 142.834 184.531 142.718 184.325 142.512C184.119 142.305 184.003 142.025 184.003 141.733C184.003 141.441 184.119 141.161 184.325 140.955C184.531 140.749 184.811 140.633 185.103 140.633H275.704C275.996 140.633 276.275 140.749 276.482 140.955C276.688 141.161 276.804 141.441 276.804 141.733C276.804 142.025 276.688 142.305 276.482 142.512C276.275 142.718 275.996 142.834 275.704 142.834Z" fill="#F2F2F2"/>
<path d="M374.442 143.054H283.841C283.549 143.054 283.269 142.938 283.063 142.732C282.857 142.525 282.741 142.245 282.741 141.953C282.741 141.662 282.857 141.382 283.063 141.175C283.269 140.969 283.549 140.853 283.841 140.853H374.442C374.734 140.853 375.013 140.969 375.22 141.175C375.426 141.382 375.542 141.662 375.542 141.953C375.542 142.245 375.426 142.525 375.22 142.732C375.013 142.938 374.734 143.054 374.442 143.054Z" fill="#F2F2F2"/>
<path d="M275.924 154.942H185.323C185.031 154.942 184.751 154.826 184.545 154.619C184.339 154.413 184.223 154.133 184.223 153.841C184.223 153.549 184.339 153.269 184.545 153.063C184.751 152.856 185.031 152.74 185.323 152.74H275.924C276.216 152.74 276.495 152.856 276.702 153.063C276.908 153.269 277.024 153.549 277.024 153.841C277.024 154.133 276.908 154.413 276.702 154.619C276.495 154.826 276.216 154.942 275.924 154.942Z" fill="#F2F2F2"/>
<path d="M276.144 167.049H185.542C185.251 167.049 184.971 166.933 184.765 166.727C184.559 166.521 184.443 166.241 184.443 165.949C184.443 165.657 184.559 165.377 184.765 165.17C184.971 164.964 185.251 164.848 185.542 164.848H276.144C276.435 164.848 276.715 164.964 276.921 165.17C277.128 165.377 277.243 165.657 277.243 165.949C277.243 166.241 277.128 166.521 276.921 166.727C276.715 166.933 276.435 167.049 276.144 167.049Z" fill="#F2F2F2"/>
<path d="M317.266 118.839H291.317C291.026 118.839 290.746 118.723 290.54 118.516C290.334 118.31 290.218 118.03 290.218 117.738C290.218 117.446 290.334 117.166 290.54 116.96C290.746 116.753 291.026 116.637 291.317 116.637H317.266C317.558 116.637 317.838 116.753 318.044 116.96C318.25 117.166 318.366 117.446 318.366 117.738C318.366 118.03 318.25 118.31 318.044 118.516C317.838 118.723 317.558 118.839 317.266 118.839Z" fill="#F2F2F2"/>
<path d="M317.266 154.942H291.317C291.026 154.942 290.746 154.826 290.54 154.619C290.334 154.413 290.218 154.133 290.218 153.841C290.218 153.549 290.334 153.269 290.54 153.063C290.746 152.856 291.026 152.74 291.317 152.74H317.266C317.558 152.74 317.838 152.856 318.044 153.063C318.25 153.269 318.366 153.549 318.366 153.841C318.366 154.133 318.25 154.413 318.044 154.619C317.838 154.826 317.558 154.942 317.266 154.942Z" fill="#F2F2F2"/>
<path d="M317.267 166.829H291.318C291.173 166.83 291.03 166.801 290.896 166.746C290.763 166.691 290.641 166.61 290.539 166.508C290.436 166.405 290.355 166.284 290.3 166.15C290.244 166.017 290.216 165.873 290.216 165.729C290.216 165.584 290.244 165.44 290.3 165.307C290.355 165.173 290.436 165.052 290.539 164.949C290.641 164.847 290.763 164.766 290.896 164.711C291.03 164.656 291.173 164.628 291.318 164.628H317.267C317.411 164.628 317.554 164.656 317.688 164.711C317.822 164.766 317.943 164.847 318.046 164.949C318.148 165.052 318.229 165.173 318.285 165.307C318.34 165.44 318.368 165.584 318.368 165.729C318.368 165.873 318.34 166.017 318.285 166.15C318.229 166.284 318.148 166.405 318.046 166.508C317.943 166.61 317.822 166.691 317.688 166.746C317.554 166.801 317.411 166.83 317.267 166.829Z" fill="#F2F2F2"/>
<path d="M360.808 166.829H334.859C334.567 166.829 334.288 166.712 334.083 166.506C333.877 166.3 333.761 166.02 333.761 165.729C333.761 165.437 333.877 165.157 334.083 164.951C334.288 164.745 334.567 164.628 334.859 164.628H360.808C360.952 164.628 361.096 164.656 361.229 164.711C361.363 164.766 361.484 164.847 361.587 164.949C361.689 165.052 361.77 165.173 361.826 165.307C361.881 165.44 361.91 165.584 361.91 165.729C361.91 165.873 361.881 166.017 361.826 166.15C361.77 166.284 361.689 166.405 361.587 166.508C361.484 166.61 361.363 166.691 361.229 166.746C361.096 166.801 360.952 166.83 360.808 166.829Z" fill="#F2F2F2"/>
<path d="M210.392 130.726H184.443C184.151 130.726 183.872 130.61 183.666 130.404C183.459 130.198 183.344 129.918 183.344 129.626C183.344 129.334 183.459 129.054 183.666 128.847C183.872 128.641 184.151 128.525 184.443 128.525H210.392C210.684 128.525 210.963 128.641 211.169 128.847C211.376 129.054 211.492 129.334 211.492 129.626C211.492 129.918 211.376 130.198 211.169 130.404C210.963 130.61 210.684 130.726 210.392 130.726Z" fill="#F2F2F2"/>
<path d="M275.374 296.932H184.773C184.481 296.932 184.201 296.816 183.995 296.609C183.789 296.403 183.673 296.123 183.673 295.831C183.673 295.539 183.789 295.259 183.995 295.053C184.201 294.846 184.481 294.73 184.773 294.73H275.374C275.666 294.73 275.945 294.846 276.152 295.053C276.358 295.259 276.474 295.539 276.474 295.831C276.474 296.123 276.358 296.403 276.152 296.609C275.945 296.816 275.666 296.932 275.374 296.932Z" fill="#F2F2F2"/>
<path d="M274.934 321.147H184.333C184.041 321.147 183.762 321.031 183.555 320.825C183.349 320.618 183.233 320.338 183.233 320.046C183.233 319.755 183.349 319.475 183.555 319.268C183.762 319.062 184.041 318.946 184.333 318.946H274.934C275.226 318.946 275.506 319.062 275.712 319.268C275.918 319.475 276.034 319.755 276.034 320.046C276.034 320.338 275.918 320.618 275.712 320.825C275.506 321.031 275.226 321.147 274.934 321.147Z" fill="#F2F2F2"/>
<path d="M275.154 333.255H184.553C184.408 333.255 184.265 333.227 184.132 333.172C183.998 333.117 183.876 333.036 183.774 332.933C183.672 332.831 183.59 332.71 183.535 332.576C183.48 332.442 183.451 332.299 183.451 332.154C183.451 332.01 183.48 331.866 183.535 331.733C183.59 331.599 183.672 331.477 183.774 331.375C183.876 331.273 183.998 331.192 184.132 331.137C184.265 331.082 184.408 331.053 184.553 331.054H275.154C275.299 331.053 275.442 331.082 275.576 331.137C275.71 331.192 275.831 331.273 275.933 331.375C276.036 331.477 276.117 331.599 276.172 331.733C276.228 331.866 276.256 332.01 276.256 332.154C276.256 332.299 276.228 332.442 276.172 332.576C276.117 332.71 276.036 332.831 275.933 332.933C275.831 333.036 275.71 333.117 275.576 333.172C275.442 333.227 275.299 333.255 275.154 333.255Z" fill="#F2F2F2"/>
<path d="M313.858 321.367H287.909C287.617 321.367 287.338 321.251 287.131 321.045C286.925 320.839 286.809 320.559 286.809 320.267C286.809 319.975 286.925 319.695 287.131 319.488C287.338 319.282 287.617 319.166 287.909 319.166H313.858C314.149 319.166 314.429 319.282 314.635 319.488C314.841 319.695 314.957 319.975 314.957 320.267C314.957 320.559 314.841 320.839 314.635 321.045C314.429 321.251 314.149 321.367 313.858 321.367Z" fill="#F2F2F2"/>
<path d="M313.858 333.255H287.909C287.617 333.255 287.338 333.139 287.131 332.933C286.925 332.726 286.809 332.446 286.809 332.154C286.809 331.862 286.925 331.582 287.131 331.376C287.338 331.17 287.617 331.054 287.909 331.054H313.858C314.149 331.054 314.429 331.17 314.635 331.376C314.841 331.582 314.957 331.862 314.957 332.154C314.957 332.446 314.841 332.726 314.635 332.933C314.429 333.139 314.149 333.255 313.858 333.255Z" fill="#F2F2F2"/>
<path d="M357.4 321.367H331.451C331.159 321.367 330.879 321.251 330.673 321.045C330.467 320.839 330.351 320.559 330.351 320.267C330.351 319.975 330.467 319.695 330.673 319.488C330.879 319.282 331.159 319.166 331.451 319.166H357.4C357.691 319.166 357.971 319.282 358.177 319.488C358.383 319.695 358.499 319.975 358.499 320.267C358.499 320.559 358.383 320.839 358.177 321.045C357.971 321.251 357.691 321.367 357.4 321.367Z" fill="#F2F2F2"/>
<path d="M374.552 309.04H232.053C231.761 309.04 231.482 308.924 231.275 308.717C231.069 308.511 230.953 308.231 230.953 307.939C230.953 307.647 231.069 307.367 231.275 307.161C231.482 306.954 231.761 306.838 232.053 306.838H374.552C374.844 306.838 375.124 306.954 375.33 307.161C375.536 307.367 375.652 307.647 375.652 307.939C375.652 308.231 375.536 308.511 375.33 308.717C375.124 308.924 374.844 309.04 374.552 309.04Z" fill="#F2F2F2"/>
<path d="M210.502 309.04H184.553C184.262 309.04 183.982 308.924 183.776 308.717C183.569 308.511 183.454 308.231 183.454 307.939C183.454 307.647 183.569 307.367 183.776 307.161C183.982 306.954 184.262 306.838 184.553 306.838H210.502C210.794 306.838 211.073 306.954 211.28 307.161C211.486 307.367 211.602 307.647 211.602 307.939C211.602 308.231 211.486 308.511 211.28 308.717C211.073 308.924 210.794 309.04 210.502 309.04Z" fill="#F2F2F2"/>
<path d="M374.552 345.583H232.053C231.908 345.583 231.765 345.555 231.631 345.5C231.497 345.444 231.376 345.363 231.274 345.261C231.171 345.159 231.09 345.038 231.035 344.904C230.979 344.77 230.951 344.627 230.951 344.482C230.951 344.337 230.979 344.194 231.035 344.06C231.09 343.927 231.171 343.805 231.274 343.703C231.376 343.601 231.497 343.52 231.631 343.464C231.765 343.409 231.908 343.381 232.053 343.381H374.552C374.843 343.381 375.123 343.497 375.329 343.704C375.536 343.91 375.651 344.19 375.651 344.482C375.651 344.774 375.536 345.054 375.329 345.26C375.123 345.467 374.843 345.583 374.552 345.583Z" fill="#F2F2F2"/>
<path d="M210.502 345.583H184.553C184.408 345.583 184.265 345.555 184.132 345.5C183.998 345.444 183.876 345.363 183.774 345.261C183.672 345.159 183.59 345.038 183.535 344.904C183.48 344.77 183.451 344.627 183.451 344.482C183.451 344.337 183.48 344.194 183.535 344.06C183.59 343.927 183.672 343.805 183.774 343.703C183.876 343.601 183.998 343.52 184.132 343.464C184.265 343.409 184.408 343.381 184.553 343.381H210.502C210.647 343.381 210.79 343.409 210.923 343.464C211.057 343.52 211.179 343.601 211.281 343.703C211.383 343.805 211.464 343.927 211.52 344.06C211.575 344.194 211.604 344.337 211.604 344.482C211.604 344.627 211.575 344.77 211.52 344.904C211.464 345.038 211.383 345.159 211.281 345.261C211.179 345.363 211.057 345.444 210.923 345.5C210.79 345.555 210.647 345.583 210.502 345.583Z" fill="#F2F2F2"/>
<path d="M253.494 196.108L218.309 230.89L253.494 265.672L261.41 257.747L234.802 231.11L261.63 204.253L253.494 196.108Z" fill="#6C63FF"/>
<path d="M305.391 196.108L340.577 230.89L305.391 265.672L297.475 257.747L324.084 231.11L297.255 204.253L305.391 196.108Z" fill="#6C63FF"/>
<path d="M105.583 90.9334C108.01 90.9334 109.978 88.9634 109.978 86.5334C109.978 84.1033 108.01 82.1334 105.583 82.1334C103.155 82.1334 101.187 84.1033 101.187 86.5334C101.187 88.9634 103.155 90.9334 105.583 90.9334Z" fill="#E20F0F"/>
<path d="M117.304 90.9334C119.731 90.9334 121.699 88.9634 121.699 86.5334C121.699 84.1033 119.731 82.1334 117.304 82.1334C114.876 82.1334 112.908 84.1033 112.908 86.5334C112.908 88.9634 114.876 90.9334 117.304 90.9334Z" fill="#E8C300"/>
<path d="M129.024 90.9334C131.452 90.9334 133.42 88.9634 133.42 86.5334C133.42 84.1033 131.452 82.1334 129.024 82.1334C126.597 82.1334 124.629 84.1033 124.629 86.5334C124.629 88.9634 126.597 90.9334 129.024 90.9334Z" fill="#11CC64"/>
<path opacity="0.1" d="M463.07 93.8666H95.8152V95.3333H463.07V93.8666Z" fill="black"/>
<path d="M59.8851 367.2C58.6163 367.907 57.2779 368.481 55.8912 368.912C53.4108 369.591 50.7598 369.342 48.2544 369.921C47.2287 370.158 46.1123 370.654 45.7861 371.656C45.5468 372.391 45.8071 373.184 46.0564 373.916C48.8247 382.041 50.4933 390.668 54.9082 398.028C56.7636 401.119 59.0665 403.918 61.7418 406.333C62.7455 407.239 63.8829 408.125 65.2266 408.267C65.8458 408.332 66.4713 408.233 67.04 407.979C67.6087 407.725 68.1004 407.326 68.4656 406.821C68.8307 406.316 69.0563 405.723 69.1196 405.103C69.1829 404.483 69.0817 403.857 68.8261 403.289C68.4303 402.408 67.6944 401.726 67.2199 400.886C66.7053 399.815 66.4035 398.654 66.3313 397.468C65.8951 393.993 65.4749 390.361 66.6777 387.072C67.4845 384.866 68.9643 382.985 70.1971 380.986C71.43 378.987 72.4543 376.698 72.1799 374.365C71.9927 372.773 71.2169 371.316 70.3974 369.938C69.5762 368.558 67.9532 364.85 66.3034 364.389C64.5909 363.911 61.3786 366.434 59.8851 367.2Z" fill="#191C26"/>
<path d="M105.028 395.267C105.053 396.053 104.944 396.838 104.704 397.587C104.187 398.952 102.906 399.887 102.244 401.188C101.323 402.997 101.741 405.184 102.351 407.121C102.733 408.335 103.235 409.598 104.261 410.349C105.14 410.894 106.138 411.214 107.169 411.281C115.977 412.501 124.925 411.801 133.814 412.057C135.434 412.103 137.149 412.16 138.563 411.368C139.978 410.575 140.852 408.583 139.89 407.277C139.026 406.104 137.319 406.115 135.865 406.046C132.079 405.853 128.474 404.367 125.652 401.834C125.095 401.358 124.612 400.802 124.219 400.183C123.917 399.635 123.666 399.059 123.47 398.464C122.224 395.085 120.741 391.798 119.034 388.628C118.556 387.741 118.014 386.817 117.126 386.342C116.476 386.046 115.77 385.892 115.056 385.889C112.84 385.746 107.103 384.991 105.39 386.715C103.807 388.309 105.063 393.243 105.028 395.267Z" fill="#191C26"/>
<path d="M118.66 198.34C126.475 198.34 132.81 191.998 132.81 184.174C132.81 176.351 126.475 170.009 118.66 170.009C110.845 170.009 104.509 176.351 104.509 184.174C104.509 191.998 110.845 198.34 118.66 198.34Z" fill="#FBBEBE"/>
<path d="M105.882 195.871C105.04 198.127 103.613 200.245 101.535 201.459L121.106 205.456C120.397 202.596 120.303 199.618 120.832 196.72C121.026 196.018 121.066 195.283 120.949 194.564C120.581 193.143 118.983 192.459 117.553 192.132C113.981 191.317 110.822 190.88 107.502 189.301C106.488 191.04 106.63 193.867 105.882 195.871Z" fill="#FBBEBE"/>
<path d="M101.371 196.155C103.477 195.202 105.771 194.738 108.081 194.798C110.391 194.858 112.657 195.442 114.71 196.504C117.219 197.828 119.297 199.826 121.338 201.797C123.22 203.614 125.227 205.695 125.36 208.308C125.425 209.575 125.03 210.813 124.831 212.065C124.473 214.654 124.928 217.291 126.134 219.61C127.34 221.929 129.236 223.814 131.561 225.006C133.116 227.598 133.436 230.74 133.46 233.764C133.551 245.221 129.939 256.82 132.517 267.984C133.123 270.605 134.062 273.143 134.584 275.782C135.262 279.2 135.228 282.714 135.583 286.181C135.967 289.934 136.805 293.627 138.08 297.178C137.228 298.534 135.455 299.054 133.859 298.945C132.263 298.835 130.77 298.141 129.346 297.412C122.448 293.878 116.131 289.219 108.987 286.216C104.261 284.229 99.2256 282.992 94.6406 280.697C90.0555 278.403 85.7914 274.761 84.3894 269.826C83.7833 267.691 83.7459 265.443 83.7128 263.224C83.5735 253.88 83.444 244.433 85.4759 235.312C87.2677 227.268 90.7217 219.572 91.4752 211.365C91.7205 208.694 91.7257 205.834 93.2167 203.605C95.3241 200.454 99.8744 199.638 101.371 196.155Z" fill="#2F2E41"/>
<path d="M110.612 184.374C111.446 183.286 113.054 183.137 114.386 183.459C115.718 183.781 116.946 184.468 118.292 184.73C118.597 184.817 118.918 184.839 119.233 184.794C119.548 184.75 119.85 184.64 120.12 184.473C120.59 184.009 120.871 183.387 120.909 182.727C121.38 179.92 121.49 177.065 121.236 174.23C121.166 173.832 121.193 173.424 121.314 173.038C121.647 172.235 122.663 172.044 123.493 171.786C124.862 171.323 126.038 170.416 126.835 169.209C127.633 168.002 128.005 166.564 127.895 165.121C127.874 164.429 127.584 163.773 127.086 163.292C126.512 162.824 125.708 162.795 124.968 162.789C121.164 162.759 117.36 162.76 113.556 162.792C112.149 162.804 110.67 162.839 109.45 163.541C108.547 164.061 107.876 164.897 107.066 165.551C104.953 167.258 102.095 167.605 99.525 168.48C98.2703 168.838 97.1308 169.518 96.22 170.453C95.3652 171.431 94.9542 172.885 95.491 174.067C95.7666 174.56 96.0745 175.035 96.4125 175.487C97.9287 177.914 96.9193 181.062 97.1457 183.915C97.4285 187.479 102.696 193.259 106.268 194.102C112.034 195.463 108.703 186.713 110.612 184.374Z" fill="#2F2E41"/>
<path d="M102.624 340.6C102.987 343.202 103.454 345.813 103.329 348.437C103.155 352.101 101.835 355.63 101.591 359.29C101.409 362.023 101.831 364.786 101.451 367.499C101.209 369.236 100.643 370.911 100.292 372.629C99.7377 375.43 99.7533 378.314 100.338 381.109C100.924 383.903 102.066 386.551 103.698 388.893C103.938 389.293 104.278 389.624 104.686 389.851C105.077 389.996 105.496 390.052 105.911 390.014C110.029 389.93 114.137 389.556 118.203 388.895C118.501 388.883 118.783 388.758 118.993 388.547C119.084 388.406 119.143 388.247 119.164 388.08C119.918 384.2 118.199 380.31 117.761 376.382C117.295 372.187 118.3 367.984 119.298 363.883C119.75 361.861 120.316 359.865 120.991 357.905C121.474 356.587 122.056 355.304 122.474 353.964C123.066 351.858 123.427 349.693 123.55 347.509C123.84 344.062 123.994 340.608 124.011 337.145C124.11 333.864 123.837 330.582 123.198 327.362C122.281 323.286 120.403 319.501 118.541 315.761C117.545 316 116.611 316.444 115.797 317.066C113.398 318.622 110.893 320.007 108.301 321.212C106.559 322.022 103.162 322.598 102.057 324.285C100.966 325.95 101.67 329.346 101.753 331.182C101.896 334.332 102.186 337.472 102.624 340.6Z" fill="#191C26"/>
<path opacity="0.1" d="M102.736 340.839C103.1 343.441 103.566 346.052 103.442 348.676C103.268 352.34 101.948 355.869 101.704 359.529C101.521 362.262 101.943 365.025 101.564 367.738C101.321 369.475 100.755 371.15 100.405 372.868C99.85 375.669 99.8656 378.553 100.451 381.348C101.036 384.142 102.179 386.79 103.81 389.132C104.05 389.532 104.391 389.863 104.798 390.09C105.189 390.235 105.608 390.291 106.023 390.253C110.142 390.169 114.249 389.795 118.316 389.134C118.613 389.122 118.895 388.997 119.105 388.786C119.197 388.645 119.255 388.486 119.276 388.319C120.03 384.439 118.311 380.549 117.874 376.621C117.407 372.426 118.412 368.223 119.41 364.123C119.863 362.1 120.428 360.104 121.104 358.145C121.586 356.826 122.168 355.543 122.587 354.203C123.179 352.097 123.539 349.932 123.662 347.748C123.952 344.301 124.106 340.847 124.123 337.384C124.222 334.103 123.949 330.821 123.31 327.601C122.393 323.525 120.515 319.74 118.653 316C117.658 316.239 116.723 316.683 115.909 317.305C113.51 318.861 111.005 320.246 108.413 321.451C106.671 322.261 103.274 322.837 102.169 324.524C101.079 326.189 101.782 329.585 101.865 331.421C102.008 334.572 102.298 337.711 102.736 340.839Z" fill="black"/>
<path d="M83.4925 285.031C81.6134 290.096 84.3756 295.568 86.7753 300.408C92.6876 312.33 96.7931 325.051 100.877 337.718C101.183 338.667 101.488 339.702 101.147 340.639C100.853 341.305 100.375 341.872 99.7693 342.275C96.9536 344.416 93.3683 345.179 90.0142 346.299C86.7727 347.382 83.6681 348.839 80.7631 350.64C78.3326 352.148 76.0558 353.888 73.7834 355.626L66.5496 361.156C66.0813 361.473 65.6721 361.869 65.3405 362.328C64.6429 363.423 64.9286 364.854 65.276 366.106C66.1959 369.421 67.3803 372.657 68.8177 375.782C69.0542 376.467 69.5045 377.058 70.1021 377.467C71.2312 378.075 72.6122 377.269 73.4744 376.32C74.3366 375.37 75.0823 374.189 76.2977 373.781C77.5117 373.374 78.8478 373.867 80.1156 373.689C82.1661 373.401 83.5275 371.51 85.0056 370.058C91.0444 364.127 101.127 364.557 107.77 359.314C108.73 358.453 109.747 357.658 110.813 356.934C111.936 356.269 113.209 355.905 114.375 355.317C117.918 353.531 120.146 349.838 121.34 346.049C122.533 342.261 122.874 338.262 123.731 334.384C124.175 332.379 124.758 330.396 124.956 328.352C125.082 326.451 125.041 324.542 124.832 322.649L122.435 292.966C122.24 290.549 122.044 288.129 121.665 285.735C114.547 285.989 107.433 286.276 100.31 286.36C94.6423 286.427 88.8703 286.824 83.4925 285.031Z" fill="#191C26"/>
<path d="M80.8757 291.975C81.8414 293.529 84.1918 293.497 85.8103 292.645C87.4288 291.793 88.6862 290.361 90.3085 289.515C92.4886 288.38 95.0683 288.423 97.5248 288.492C101.414 288.602 105.351 288.719 109.093 289.786C112.963 290.89 116.731 293.014 120.733 292.59C121.429 292.517 122.19 292.317 122.569 291.727C122.791 291.3 122.896 290.822 122.872 290.341L123.003 286.841C123.083 286.236 122.986 285.62 122.725 285.069C122.389 284.61 121.928 284.257 121.398 284.052C115.702 281.292 109.206 280.778 102.882 280.561C99.6666 280.45 96.4502 280.405 93.2325 280.425C90.5021 280.441 87.2241 280.046 84.5695 280.776C81.0068 281.756 79.0682 289.065 80.8757 291.975Z" fill="#191C26"/>
<path d="M116.642 200.31C109.179 200.244 102.416 195.313 94.9529 195.192C94.0512 195.13 93.1479 195.286 92.3193 195.647C91.2794 196.172 90.5957 197.186 89.8057 198.042C87.5991 200.434 84.4037 201.711 82.1368 204.046C80.0113 206.235 78.8292 209.497 79.6683 212.432C80.5075 215.367 83.6747 217.618 86.6418 216.913C87.8372 213.039 90.3044 209.684 93.6435 207.39C95.3809 206.274 97.2119 205.312 99.1158 204.514C102.47 202.993 106.221 201.442 109.722 202.583C111.014 203.071 112.231 203.736 113.341 204.558L119.179 208.484C118.498 205.798 117.887 202.785 116.642 200.31Z" fill="#6C63FF"/>
<path d="M84.3844 214.057C83.3933 215.295 84.821 217.088 84.6025 218.659C84.4573 219.703 83.5992 220.5 83.2419 221.491C82.8717 222.518 83.068 223.655 82.9276 224.738C82.7868 225.525 82.5784 226.299 82.3049 227.05C81.6762 229.295 81.2373 231.589 80.993 233.907L79.6866 243.673C79.4599 245.143 79.322 246.625 79.2735 248.111C79.3393 249.222 79.2651 250.337 79.0527 251.429C78.7634 252.496 78.1229 253.43 77.692 254.448C77.2611 255.467 77.0614 256.698 77.6434 257.638C75.6941 259.263 75.1145 262.455 76.4776 264.597C76.737 264.931 76.94 265.305 77.0783 265.705C77.1537 266.263 77.0616 266.832 76.8137 267.338L75.4928 270.861C75.1547 271.763 75.0478 273.136 75.9878 273.342C75.2092 274.151 74.6026 275.11 74.2046 276.161C74.0116 276.689 73.9539 277.256 74.0368 277.812C74.1198 278.368 74.3408 278.894 74.6795 279.342C75.0077 279.63 75.2872 279.969 75.507 280.347C75.6362 280.873 75.6029 281.426 75.4114 281.933C75.2139 282.702 75.1758 283.504 75.2995 284.289C75.4232 285.073 75.7061 285.824 76.1307 286.496C76.5707 287.158 77.1939 287.677 77.924 287.99C78.6542 288.304 79.4597 288.397 80.2421 288.26C82.8844 287.663 85.2587 286.721 87.923 287.211C93.6594 288.264 99.4142 289.323 104.97 291.098C111.311 293.125 117.451 296.097 124.078 296.721C124.514 296.81 124.968 296.739 125.356 296.522C125.694 296.202 125.904 295.769 125.947 295.306C126.63 292.101 127.312 288.896 127.995 285.692C128.82 282.14 129.449 278.544 129.878 274.923C130.111 272.585 130.178 270.235 130.244 267.886L130.772 249.196C131.019 246.441 130.652 243.666 129.697 241.071L126.661 231.367C124.928 225.829 120.953 220.919 119.538 215.291C118.642 211.73 117.98 207.908 115.578 205.132C112.153 201.174 106.228 200.559 101.042 201.239C98.6993 201.547 96.3364 202.077 94.3099 203.293C91.9665 204.7 90.2402 206.915 88.5701 209.08C87.1937 210.864 85.7927 212.298 84.3844 214.057Z" fill="#6C63FF"/>
<path d="M97.891 269.291C98.3183 271.136 99.2156 272.836 99.7649 274.648C100.685 277.683 100.607 280.953 101.525 283.989C101.911 285.263 102.47 286.486 102.746 287.789C103.391 290.825 102.449 293.966 101.279 296.841C100.109 299.715 98.6845 302.55 98.3046 305.631C98.0371 307.801 98.4214 310.251 100.092 311.659C101.827 313.121 104.347 313.022 106.607 312.827C107.418 312.805 108.218 312.638 108.971 312.335C110.699 311.516 111.426 309.47 111.83 307.6C113.183 301.333 112.797 294.837 112.404 288.437L111.375 271.7C111.177 268.478 110.965 265.189 109.973 262.095C109.612 260.97 108.983 258.696 107.956 257.977C106.939 257.265 104.035 257.234 102.775 257.174C96.8672 256.897 96.9335 265.152 97.891 269.291Z" fill="#FBBEBE"/>
<path d="M104.437 207.496C103.231 206.863 101.71 207.136 100.544 207.84C99.418 208.612 98.4317 209.571 97.6276 210.675C95.0203 213.861 92.2601 217.517 92.6468 221.617C92.7918 223.155 93.3798 224.61 93.7785 226.101C95.5266 232.643 93.5936 239.561 93.8154 246.328C93.9435 250.239 94.7935 254.085 95.6401 257.905C95.8128 258.684 96.0895 259.587 96.8428 259.849C97.4087 260.046 98.02 259.793 98.58 259.58C100.667 258.808 102.908 258.55 105.115 258.829C107.322 259.107 109.43 259.914 111.26 261.18C112.659 260.432 112.135 258.069 111.821 256.513C110.889 251.889 112.154 247.119 113.691 242.66C115.227 238.201 117.065 233.747 117.32 229.037C117.608 223.7 115.841 218.492 114.097 213.44C113.716 212.338 113.3 211.181 112.418 210.42C111.662 209.857 110.796 209.461 109.877 209.258C108.024 208.709 106.149 208.393 104.437 207.496Z" fill="#191C26"/>
</g>
<defs>
<clipPath id="clip0">
<rect width="550" height="418" fill="white"/>
</clipPath>
</defs>
</svg>
